<?xml version="1.0" encoding="UTF-8"?>
<svg id="Layer_1" data-name="Layer 1" xmlns="http://www.w3.org/2000/svg" xmlns:xlink="http://www.w3.org/1999/xlink" viewBox="0 0 148 64">
  <defs>
    <style>
      .cls-1 {
        fill: #caa52c;
      }

      .cls-2 {
        fill: none;
      }

      .cls-3 {
        stroke: #231f20;
        stroke-linejoin: round;
        stroke-width: 1.5px;
      }

      .cls-3, .cls-4 {
        fill: #231f20;
      }

      .cls-5 {
        fill: #034ea2;
      }

      .cls-6 {
        clip-path: url(#clippath);
      }
    </style>
    <clipPath id="clippath">
      <rect class="cls-2" x="63.48" y="2.09" width="28.41" height="35.05"/>
    </clipPath>
  </defs>
  <g class="cls-6">
    <g>
      <path class="cls-5" d="M77,37.07c-.49-3.08-1.99-5.9-4.24-7.93-2.27-2.06-5.17-3.2-8.17-3.2h-1.11v.49h1.11c2.87,0,5.66,1.09,7.84,3.07,2.16,1.96,3.61,4.68,4.08,7.65l.48-.08h0Z"/>
      <path class="cls-5" d="M78.86,37.15c.47-2.97,1.92-5.68,4.08-7.65,2.18-1.98,4.97-3.07,7.84-3.07h1.11v-.49h-1.11c-2.99,0-5.9,1.14-8.17,3.2-2.24,2.04-3.75,4.86-4.24,7.93l.48.08h0Z"/>
      <path class="cls-5" d="M77.63,37.07v-11.21h5.21l.83,1.56s-4.82,2.58-6.04,9.65Z"/>
      <path class="cls-3" d="M76.72,27.61c.15,0,.28-.12.28-.28v-.24c0-.15-.12-.28-.28-.28h-.76c-.15,0-.28.12-.28.28v.24c0,.15.12.28.28.28h.76Z"/>
      <path class="cls-5" d="M80.62,19.31h-2.99V2.09h.19s1.04,14.17,2.79,17.22Z"/>
      <path class="cls-5" d="M76.16,19.31h.65V2.13h-.32l-.32,17.19Z"/>
      <path class="cls-1" d="M75.73,17.15c-2.53.72-4.5,2.75-5.15,5.3l.47.12c.61-2.38,2.45-4.27,4.81-4.95l-.13-.47Z"/>
      <path class="cls-1" d="M80.54,17.9c1.98.84,3.47,2.59,4,4.66l.47-.12c-.57-2.22-2.17-4.09-4.28-4.99l-.19.45h0Z"/>
      <path class="cls-1" d="M70.08,22.35c.71-2.76,2.88-4.93,5.63-5.66l.03-.23v-.92l-.23-.69c-.47.11-.92.25-1.36.43l.23.69c-.2.08-.39.17-.58.26l-.35-.63c-.43.21-.84.45-1.23.73l.35.64c-.18.13-.36.26-.53.4l-.45-.56c-.37.3-.72.63-1.04.99l.46.57c-.15.17-.29.34-.43.52l-.54-.48c-.29.38-.56.78-.79,1.21l.56.49c-.11.2-.2.4-.3.6l-.62-.38c-.2.44-.37.9-.5,1.37l.64.39c-.03.11-.05.22-.08.32h1.02l.13-.05h0Z"/>
      <path class="cls-1" d="M87.14,21.68c-.13-.47-.3-.93-.5-1.37l-.62.38c-.09-.21-.19-.41-.3-.6l.56-.49c-.24-.42-.5-.82-.79-1.21l-.54.48c-.14-.18-.28-.35-.43-.52l.46-.57c-.32-.35-.67-.68-1.04-.99l-.45.56c-.17-.14-.35-.27-.53-.4l.35-.64c-.39-.27-.8-.51-1.23-.73l-.35.63c-.19-.09-.38-.18-.58-.26l.23-.69c-.44-.18-.9-.32-1.36-.43l-.08.24.35,1.74c2.52.84,4.48,2.92,5.15,5.52l.13.05h1.02c-.02-.11-.05-.22-.08-.32l.64-.39h0Z"/>
      <path class="cls-5" d="M70.51,25.86l4.19,2.39v-2.39h-4.19ZM74.27,27.53l-2.1-1.19h2.1v1.19Z"/>
      <path class="cls-1" d="M75.88,25.86h.93v1.3h-.93v-1.3Z"/>
      <path class="cls-4" d="M82.79,20.1h-.34v2.25h.34v-2.25Z"/>
      <path class="cls-4" d="M77.69,20.1h-.34v2.25h.34v-2.25Z"/>
      <path class="cls-4" d="M89.55,22.83v1.72h-.62v-1.72h-.34v1.72h-.25v-.98h-.34v.98h-.86c.02-.15.12-.57.51-.82v-.19h-1.2v.15s.43.45.45.86h-.91v-1.72h-.34v1.72h-.25v-.89h-.34v.89h-.37v-1.05h-.13c-.41,0-1.18.21-1.26,1.05h-.19v.54h6.76v-2.25h-.34ZM84.43,23.77v.77h-.85c.07-.62.6-.75.85-.77Z"/>
      <path class="cls-4" d="M82.93,22.83h-.34v2.25h.34v-2.25Z"/>
      <path class="cls-4" d="M81.94,24.55h-.23v-.89h-.34v.89h-.25v-.89h-.07,0s-1.49,0-1.49,0c-.1.04-.16.08-.21.13v-.96h-.34v1.72h-.28v-.89h-.34v.89h-.2v-.89h-.34v.89h-.38c.15-.08.25-.23.25-.4,0-.25-.21-.46-.48-.46s-.48.2-.48.46c0,.17.1.33.25.4h-.32l-.42-.88h-.92s.03.25.03.25l.36.63h-.67v-.9h-.3v1.01h0v.43h1s.11,0,.11,0h.49s-.68-1.2-.68-1.2l.38.02.61,1.18h5.58v-2.25h-.34v1.72h0ZM77.25,23.93c.1,0,.19.08.19.19s-.08.19-.19.19-.19-.08-.19-.19.08-.19.19-.19ZM79.35,24.55v-.23c.06-.36.31-.4.31-.4h1.13v.63h-1.44Z"/>
      <path class="cls-4" d="M73.13,22.83h-.34v2.25h.34v-2.25Z"/>
      <path class="cls-4" d="M69.6,24.55h-.51v.54h.85v-1.43h-.34v.89Z"/>
      <path class="cls-4" d="M72.22,24.55h-.25v-.89h-.34v.89h-.23,0s-.05-.43-.43-.77c0,0-.09-.08-.18-.11h-.69v.31s.43,0,.43,0c0,0,.46.04.46.56h0s-.85.01-.85.01v.54h2.42v-2.25h-.34v1.72Z"/>
      <path class="cls-4" d="M75.21,22.35h1.92v-2.25h-.34v1.72h-.7c.03-.17.14-.55.5-.78v-.19h-1.2v.15s.4.42.45.82h-.63v-1.72h-.34v2.25h.34,0Z"/>
      <path class="cls-4" d="M68.82,25.08h.03v-1.43h-.34v.89h-.59v-.89h-.34v.89h-1.52v-.89h-.34v1.43h3.1Z"/>
      <path class="cls-4" d="M73.54,21.81h-.17v-.99h-.13c-.41,0-1.2.21-1.26,1.08-.02.28-.02.38.07.42v.04h2.58v-.16h.01v-1.36h-.11c-.32,0-.92.2-1,.99h0ZM74.43,21.1v.72h-.67c.07-.58.48-.69.67-.72ZM73.11,21.1v.72h-.84c.09-.58.6-.69.84-.72Z"/>
      <path class="cls-4" d="M77.91,22.32v.03h4.28v-2.25h-.34v1.72h-.23c.08-.27-.05-.65-.05-.65-.15-.27-.55-.44-.83-.46-.28-.02-.27.27-.17.27s.06.13.06.13c-.21.21-.13.59-.1.71h-.22v-.98h-.34v.98h-.2v-.98h-.34v.98h-.23v-.99h-.13c-.41,0-1.2.21-1.26,1.08-.02.31-.02.4.09.42h0ZM81.26,21.24c.09,0,.17.11.17.24s-.08.24-.17.24-.17-.11-.17-.24.08-.24.17-.24ZM78.94,21.1v.72h-.84c.09-.58.6-.69.84-.72Z"/>
      <path class="cls-4" d="M85.74,25.28h-.39v.39h.39v-.39Z"/>
      <path class="cls-4" d="M85.18,25.28h-.39v.39h.39v-.39Z"/>
      <path class="cls-4" d="M78.31,25.28h-.39v.39h.39v-.39Z"/>
      <path class="cls-4" d="M79.15,25.28h-.39v.39h.39v-.39Z"/>
      <path class="cls-4" d="M77.74,25.28h-.39v.39h.39v-.39Z"/>
      <path class="cls-4" d="M68.87,25.28h-.39v.39h.39v-.39Z"/>
      <path class="cls-4" d="M68.31,25.28h-.39v.39h.39v-.39Z"/>
      <path class="cls-4" d="M73.32,20.21h-.39v.39h.39v-.39Z"/>
      <path class="cls-4" d="M72.76,20.21h-.39v.39h.39v-.39Z"/>
      <path class="cls-4" d="M79.07,20.21h-.39v.39h.39v-.39Z"/>
      <path class="cls-4" d="M78.51,20.21h-.39v.39h.39v-.39Z"/>
      <path class="cls-4" d="M77.72,23.05h-.39v.39h.39v-.39Z"/>
      <path class="cls-4" d="M77.15,23.05h-.39v.39h.39v-.39Z"/>
      <path class="cls-4" d="M81.72,23.05h-.39v.39h.39v-.39Z"/>
      <path class="cls-4" d="M81.15,23.05h-.39v.39h.39v-.39Z"/>
      <path class="cls-4" d="M72.05,23.05h-.39v.39h.39v-.39Z"/>
      <path class="cls-4" d="M71.49,23.05h-.39v.39h.39v-.39Z"/>
      <path class="cls-4" d="M88.22,23.05h-.39v.39h.39v-.39Z"/>
      <path class="cls-4" d="M87.66,23.05h-.39v.39h.39v-.39Z"/>
      <path class="cls-4" d="M80.39,22.49h-.39v.39h.39v-.39Z"/>
      <path class="cls-4" d="M79.83,22.49h-.39v.39h.39v-.39Z"/>
      <path class="cls-4" d="M67.12,25.28h-.39v.39h.39v-.39Z"/>
      <path class="cls-4" d="M79.96,20.37h-.38c.08-.32.4-.27.4-.27v-.24c-.63-.02-.63.57-.63.57h-.19v.17h.8v-.23h0Z"/>
      <path class="cls-4" d="M73.98,23.69c-.26,0-.48.2-.48.46s.21.46.48.46c.06,0,.12-.01.17-.03v.23h-.5v-.07h-.2v.35h1.01v-.88h0s0-.04,0-.06c0-.25-.21-.46-.48-.46h0ZM73.98,24.31c-.1,0-.19-.08-.19-.19s.08-.19.19-.19.19.08.19.19-.08.19-.19.19Z"/>
      <path class="cls-1" d="M76.21,31.47v-1.95c-.14-.05-.25-.19-.25-.36,0-.21.17-.38.38-.38s.38.17.38.38c0,.16-.1.3-.24.35v1.94l.97-1.9c-.89-1.45-.63-2.23-.63-2.23h-.94s.26.78-.63,2.23l.97,1.91h0Z"/>
    </g>
  </g>
  <g>
    <path d="M14.86,46.53h-.39c-.55,0-.95-.23-1.19-.67-.27.45-.71.67-1.32.67h-2.92c-.89,0-1.48-.63-1.48-1.56v-.92l.77-.87v1.7c0,.59.27.89.81.89h2.77c.55,0,.82-.3.82-.89v-2.22l.77-.23v2.16c0,.78.34,1.17,1.01,1.17h.34v.76ZM11.07,47.81c0,.25-.2.47-.43.47s-.42-.22-.42-.47.19-.46.42-.46.43.22.43.46Z"/>
    <path d="M16.85,44.93c0,.46-.14.85-.42,1.15s-.66.45-1.13.45h-.63v-.74h.59c.54,0,.82-.31.82-.93v-2.17l.77-.25v2.49ZM15.57,47.81c0,.25-.2.47-.42.47s-.43-.22-.43-.47.2-.46.43-.46.42.21.42.46ZM16.68,47.81c0,.25-.19.47-.42.47s-.44-.22-.44-.47.2-.46.44-.46.42.21.42.46Z"/>
    <path d="M20.05,46.26c0,.61-.16,1.09-.5,1.46-.33.37-.78.55-1.35.55-.35,0-.64-.08-.88-.25l-.37-.85c.37.23.78.35,1.25.35.67,0,1.07-.47,1.07-1.24v-3.6l.78-.25v3.82Z"/>
    <path d="M25.15,46.53h-4.39l.47-.74h2.02v-1.73c0-.59-.29-.89-.86-.89-.47,0-.84.26-1.11.79v-.98c.37-.35.74-.54,1.11-.54.49,0,.87.15,1.18.43.3.28.45.65.45,1.13v1.77h1.12v.76Z"/>
    <path d="M28.35,46.53h-.49c-.49,0-.86-.16-1.14-.48-.28.32-.67.48-1.17.48h-.59v-.74h.54c.55,0,.82-.31.82-.93v-2.17l.77-.25v2.45c0,.6.27.9.81.9h.44v.74ZM26.55,41.16c0,.25-.2.47-.43.47s-.42-.22-.42-.47.18-.46.42-.46.43.21.43.46ZM27.65,41.16c0,.25-.2.47-.43.47s-.42-.22-.42-.47.2-.46.42-.46.43.21.43.46Z"/>
    <path d="M30.23,44.93c0,.46-.14.84-.42,1.15-.28.3-.66.45-1.13.45h-.53v-.76h.49c.53,0,.81-.31.81-.93v-3.9l.78-.25v4.23Z"/>
    <path d="M31.72,46.53h-.78v-5.59l.78-.27v5.86Z"/>
    <path d="M35.6,46.18c0,.63-.15,1.12-.44,1.48-.3.41-.75.62-1.33.62-.41,0-.73-.08-.96-.24l-.35-.84c.47.24.9.34,1.31.32.59-.04.92-.4.99-1.08-.24.14-.49.22-.78.22-.57,0-1-.22-1.27-.65-.22-.35-.34-.81-.34-1.38s.12-1.04.34-1.39c.27-.43.7-.65,1.27-.65.63,0,1.07.25,1.33.74.18.37.27.91.27,1.61,0,.17,0,.4,0,.66-.02.29-.03.48-.03.57ZM34.86,44.63c0-.86-.27-1.29-.82-1.29s-.83.43-.83,1.29.28,1.28.83,1.28.82-.43.82-1.28Z"/>
    <path d="M41.84,46.53c.03.57-.16,1.02-.56,1.33-.36.28-.85.42-1.46.42-.72,0-1.28-.23-1.65-.67-.33-.39-.49-.93-.49-1.6,0-.55.11-1.11.33-1.69l.9-.6c-.32.79-.49,1.5-.49,2.13,0,1.04.49,1.66,1.4,1.65.39,0,.67-.04.85-.12.33-.14.51-.42.54-.84-.51-.05-.85-.27-1.01-.69l.36-.82c.21.57.42.76.95.76h.34v.74ZM39.67,49.47c0,.25-.19.47-.43.47s-.43-.22-.43-.47.2-.46.43-.46.43.22.43.46ZM40.79,49.47c0,.25-.2.47-.43.47s-.43-.22-.43-.47.19-.46.43-.46.43.22.43.46Z"/>
    <path d="M46.32,46.53h-1.79c-.16,0-.32-.02-.49-.05-.16.04-.31.05-.49.05h-1.82v-.74h1.21c-.34-.41-.5-.84-.51-1.29-.02-.57.09-1.04.32-1.41.29-.44.72-.65,1.28-.65s1,.22,1.28.65c.23.36.35.84.34,1.41-.02.45-.19.88-.53,1.29h1.18v.74ZM43.9,41.16c0,.25-.2.47-.44.47s-.43-.22-.43-.47.2-.46.43-.46.44.21.44.46ZM44.05,43.2c-.54,0-.86.5-.86,1.12,0,.32.07.61.21.87.16.3.38.51.65.61.28-.1.49-.31.65-.61.14-.26.21-.55.21-.87,0-.62-.3-1.12-.86-1.12ZM45,41.16c0,.25-.2.47-.43.47s-.43-.22-.43-.47.2-.46.43-.46.43.21.43.46Z"/>
    <path d="M49.52,46.53h-.49c-.49,0-.86-.16-1.14-.48-.28.32-.67.48-1.17.48h-.59v-.74h.54c.55,0,.82-.31.82-.93v-2.17l.77-.25v2.45c0,.6.27.9.81.9h.44v.74ZM47.76,47.81c0,.25-.2.47-.43.47s-.42-.22-.42-.47.18-.46.42-.46.43.21.43.46ZM48.86,47.81c0,.25-.2.47-.43.47s-.42-.22-.42-.47.19-.46.42-.46.43.21.43.46Z"/>
    <path d="M52.72,46.53h-.49c-.49,0-.86-.16-1.14-.48-.28.32-.67.48-1.17.48h-.59v-.74h.54c.55,0,.82-.31.82-.93v-2.17l.77-.25v2.45c0,.6.27.9.81.9h.44v.74ZM51.54,47.81c0,.25-.19.47-.42.47s-.43-.22-.43-.47.2-.46.43-.46.42.22.42.46Z"/>
    <path d="M59.5,46.53h-7v-.76h1.01v-4.67l.78-.26v3.11c.53-.95,1.28-1.44,2.24-1.46.8-.03,1.4.33,1.79,1.04.28.49.4,1.24.37,2.24h.81v.76ZM57.92,45.77c.03-.14.03-.27.03-.41,0-.57-.11-1.06-.32-1.49-.25-.37-.6-.58-1.07-.61-.55-.03-1.06.27-1.53.88-.4.5-.66,1.04-.77,1.63h3.66Z"/>
    <path d="M62.7,46.53h-.49c-.49,0-.86-.16-1.14-.48-.28.32-.67.48-1.17.48h-.59v-.74h.54c.55,0,.82-.31.82-.93v-2.17l.77-.25v2.45c0,.6.27.9.81.9h.44v.74ZM60.9,41.16c0,.25-.2.47-.43.47s-.42-.22-.42-.47.18-.46.42-.46.43.21.43.46ZM62.01,41.16c0,.25-.2.47-.43.47s-.42-.22-.42-.47.2-.46.42-.46.43.21.43.46Z"/>
    <path d="M64.58,44.93c0,.46-.14.84-.42,1.15-.28.3-.66.45-1.13.45h-.53v-.76h.49c.53,0,.81-.31.81-.93v-3.9l.78-.25v4.23Z"/>
    <path d="M66.08,46.53h-.78v-5.59l.78-.27v5.86Z"/>
    <path d="M74.63,46.53h-.23c-.63,0-1.06-.26-1.28-.78-.27.43-.69.65-1.26.65s-.98-.2-1.25-.61c-.22-.35-.34-.8-.34-1.35,0-.5.08-.91.24-1.21h-.44c-.44,0-.74.06-.9.19-.17.14-.26.42-.26.84v3.79l-.78.25v-4.04c0-.67.16-1.15.49-1.44.28-.25.72-.37,1.31-.37h1.94c.57,0,.99.21,1.26.64.21.34.32.79.32,1.36,0,.44.07.76.21.97.16.25.42.36.81.36h.18v.76ZM72.66,44.44c0-.83-.27-1.24-.81-1.24s-.81.42-.81,1.24.27,1.21.81,1.21.81-.4.81-1.21Z"/>
    <path d="M77.84,46.53h-.49c-.49,0-.86-.16-1.14-.48-.28.32-.67.48-1.17.48h-.59v-.74h.54c.55,0,.82-.31.82-.93v-2.17l.77-.25v2.45c0,.6.27.9.81.9h.44v.74ZM76.07,47.81c0,.25-.2.47-.43.47s-.42-.22-.42-.47.18-.46.42-.46.43.21.43.46ZM77.18,47.81c0,.25-.2.47-.43.47s-.42-.22-.42-.47.19-.46.42-.46.43.21.43.46Z"/>
    <path d="M81.16,46.53h-.54c-.48,0-.86-.16-1.14-.49-.27.33-.66.49-1.16.49h-.67v-.76h.62c.54,0,.81-.31.81-.93v-3.9l.78-.27v4.21c0,.59.27.88.81.88h.49v.76Z"/>
    <path d="M85.51,46.53h-4.56v-.76h.94v-1.55c0-.51.15-.94.44-1.27.3-.34.71-.51,1.23-.51.44,0,.83.18,1.16.54l-.58.58c-.2-.26-.42-.39-.67-.39-.47,0-.79.39-.79.91v1.7h2.84v.76Z"/>
    <path d="M88.72,46.53h-.49c-.49,0-.86-.16-1.14-.48-.28.32-.67.48-1.17.48h-.59v-.74h.54c.55,0,.82-.31.82-.93v-2.17l.77-.25v2.45c0,.6.27.9.81.9h.44v.74ZM86.92,41.16c0,.25-.2.47-.43.47s-.42-.22-.42-.47.18-.46.42-.46.43.21.43.46ZM88.02,41.16c0,.25-.2.47-.43.47s-.42-.22-.42-.47.2-.46.42-.46.43.21.43.46Z"/>
    <path d="M92.04,46.53h-.54c-.48,0-.86-.16-1.14-.49-.27.33-.66.49-1.16.49h-.67v-.76h.62c.54,0,.81-.31.81-.93v-3.9l.78-.27v4.21c0,.59.27.88.81.88h.49v.76Z"/>
    <path d="M93.91,44.93c0,.46-.14.84-.42,1.15-.28.3-.66.45-1.13.45h-.53v-.76h.49c.53,0,.81-.31.81-.93v-3.9l.78-.25v4.23Z"/>
    <path d="M100.49,46.53h-.53c-.64,0-1.05-.21-1.23-.64-.19.43-.59.64-1.21.64-1.05,0-1.57-.69-1.57-2.08s.53-2.02,1.57-2.02h1.67v2.43c0,.62.27.93.81.93h.49v.74ZM98.41,43.14h-.84c-.32,0-.55.12-.68.35-.11.19-.16.52-.16.96s.06.77.16.97c.12.24.35.36.68.36s.55-.12.67-.36c.11-.2.16-.53.16-.97v-1.32ZM97.7,41.16c0,.25-.2.47-.44.47s-.43-.22-.43-.47.2-.46.43-.46.44.21.44.46ZM98.8,41.16c0,.25-.2.47-.43.47s-.42-.22-.42-.47.19-.46.42-.46.43.21.43.46Z"/>
    <path d="M104.61,44.59c0,.55-.12.99-.34,1.33-.27.41-.69.62-1.25.62-.48,0-.86-.16-1.14-.48-.26.32-.67.48-1.21.48h-.37v-.74h.32c.53,0,.81-.3.81-.91v-.29c0-.55.11-1,.34-1.34.27-.41.69-.61,1.26-.61s.98.2,1.25.61c.22.35.34.79.34,1.34ZM103.83,44.59c0-.81-.27-1.22-.81-1.22s-.82.41-.82,1.22.27,1.21.82,1.21.81-.4.81-1.21Z"/>
    <path d="M107.28,46.53h-.87c-.7,0-1.09-.47-1.09-1.17v-4.42l.78-.27v4.66c0,.29.13.44.4.44h.77v.76Z"/>
    <path d="M111.64,46.53h-4.56v-.76h.94v-1.55c0-.51.15-.94.44-1.27.3-.34.71-.51,1.23-.51.44,0,.83.18,1.16.54l-.58.58c-.2-.26-.42-.39-.68-.39-.47,0-.79.39-.79.91v1.7h2.84v.76Z"/>
    <path d="M113.52,44.93c0,.46-.14.84-.42,1.15-.28.3-.66.45-1.13.45h-.53v-.76h.49c.54,0,.81-.31.81-.93v-3.9l.78-.25v4.23Z"/>
    <path d="M115.01,46.53h-.78v-5.59l.78-.27v5.86Z"/>
    <path d="M121.6,46.53h-.54c-.64,0-1.05-.21-1.23-.64-.19.43-.59.64-1.21.64-1.05,0-1.57-.69-1.57-2.08s.53-2.02,1.57-2.02h1.67v2.43c0,.62.27.93.81.93h.49v.74ZM119.52,43.14h-.84c-.32,0-.55.12-.67.35-.11.19-.16.52-.16.96s.06.77.16.97c.12.24.35.36.67.36s.55-.12.67-.36c.11-.2.17-.53.17-.97v-1.32ZM118.8,41.16c0,.25-.2.47-.44.47s-.43-.22-.43-.47.2-.46.43-.46.44.21.44.46ZM119.9,41.16c0,.25-.2.47-.43.47s-.42-.22-.42-.47.19-.46.42-.46.43.21.43.46Z"/>
    <path d="M124.8,46.53h-.49c-.49,0-.86-.16-1.14-.48-.28.32-.67.48-1.17.48h-.59v-.74h.54c.55,0,.82-.31.82-.93v-2.17l.77-.25v2.45c0,.6.27.9.81.9h.45v.74ZM123.89,40.27l-.36.4c-.12-.17-.26-.25-.43-.25-.3,0-.46.2-.46.61v.26h1.23v.53h-2.41l.39-.53h.28v-.18c0-.68.39-1.22,1.04-1.22.26,0,.5.13.72.38Z"/>
    <path d="M128.01,46.53h-.49c-.49,0-.86-.16-1.14-.48-.28.32-.67.48-1.17.48h-.59v-.74h.54c.55,0,.82-.31.82-.93v-2.17l.77-.25v2.45c0,.6.27.9.81.9h.45v.74ZM126.25,47.81c0,.25-.2.47-.43.47s-.42-.22-.42-.47.18-.46.42-.46.43.21.43.46ZM127.35,47.81c0,.25-.2.47-.43.47s-.42-.22-.42-.47.19-.46.42-.46.43.21.43.46Z"/>
    <path d="M133.72,46.53h-5.91v-.76h1.1c-.09-.21-.15-.48-.16-.84,0-.75.18-1.38.56-1.9.39-.52.88-.78,1.5-.78s1.1.19,1.48.57c.25.25.41.57.49.99.06.31.09.83.09,1.56v.39h.85v.76ZM130.07,45.77c.4,0,.62-.38.62-.88,0-.26-.06-.5-.17-.71-.12-.21-.26-.32-.44-.32s-.33.11-.45.32c-.11.21-.16.45-.16.71,0,.5.21.88.61.88ZM132.11,45.38c0-.79-.04-1.32-.13-1.58-.16-.54-.55-.79-1.16-.78-.3,0-.54.05-.72.15.42,0,.75.19.99.58.2.32.3.7.3,1.15s-.08.74-.26.87h.98v-.39Z"/>
    <path d="M135.6,44.93c0,.46-.14.84-.42,1.15-.28.3-.66.45-1.13.45h-.53v-.76h.49c.53,0,.81-.31.81-.93v-3.9l.78-.25v4.23Z"/>
    <path d="M137.1,46.53h-.78v-5.59l.78-.27v5.86Z"/>
  </g>
  <g>
    <path d="M7.39,54.25v-.57h2.74v.57h-2.74ZM8.49,57.98v-3.95h.54v3.95h-.54Z"/>
    <path d="M10.44,57.98v-4.3h.54v4.3h-.54ZM12.13,57.98v-1.86c0-.22-.05-.38-.15-.5s-.24-.18-.43-.18-.32.05-.41.15-.15.25-.15.43l-.06-.59c.09-.18.2-.32.34-.42.14-.1.29-.15.46-.15.3,0,.53.11.7.33.16.22.25.53.25.92v1.86h-.54Z"/>
    <path d="M14.58,58.02c-.39,0-.68-.12-.9-.36-.21-.24-.32-.58-.32-1.02v-.35c0-.46.1-.81.31-1.06.2-.25.49-.38.86-.38.35,0,.62.14.81.43.19.28.29.68.29,1.2v.2h-1.87v-.49h1.35c-.02-.25-.07-.44-.18-.58s-.24-.21-.4-.21c-.2,0-.36.08-.48.22s-.17.36-.17.64v.39c0,.25.06.45.18.59s.29.2.51.2c.11,0,.22-.03.33-.07.11-.05.21-.12.29-.21l.36.4c-.14.15-.29.26-.46.34s-.34.12-.51.12Z"/>
    <path d="M17.79,57.98v-4.3h.54v4.3h-.54ZM18.07,56.31v-.57h1.24c.18,0,.32-.07.43-.2.11-.14.16-.32.16-.54s-.05-.41-.16-.54c-.11-.14-.25-.2-.43-.2h-1.24v-.57h1.22c.23,0,.44.05.61.16.17.11.31.26.41.46s.14.43.14.7-.05.5-.14.69-.23.35-.41.46c-.17.11-.38.16-.61.16h-1.22Z"/>
    <path d="M21.49,54.91v1.87c0,.21.05.38.15.5.1.12.24.18.42.18s.32-.05.41-.16.15-.25.15-.45l.04.64c-.05.14-.14.26-.26.37-.13.11-.29.16-.49.16-.31,0-.54-.11-.71-.33-.17-.22-.25-.53-.25-.92v-1.87h.54ZM22.62,57.98v-3.07h.54v3.07h-.54Z"/>
    <path d="M23.93,57.98v-4.3h.54v4.3h-.54ZM25.17,58.02c-.17,0-.32-.05-.45-.14s-.22-.22-.28-.39l.04-.64c0,.13.02.24.06.34s.1.16.19.21c.08.05.18.07.29.07.18,0,.32-.06.42-.18.1-.12.15-.29.15-.51v-.67c0-.22-.05-.4-.15-.52-.1-.12-.24-.19-.42-.19-.12,0-.21.02-.29.07-.08.05-.14.12-.19.21s-.06.2-.06.33l-.06-.59c.08-.18.19-.32.33-.42s.29-.15.45-.15c.3,0,.53.11.69.33s.24.53.24.92v.67c0,.39-.08.7-.25.91s-.4.33-.71.33Z"/>
    <path d="M27.39,53.68v3.51c0,.07.01.13.04.17.03.04.07.06.12.06h.26v.57h-.32c-.2,0-.36-.07-.48-.21s-.17-.34-.17-.6v-3.5h.54Z"/>
    <path d="M28.38,54.28v-.6h.54v.6h-.54ZM28.38,57.98v-3.07h.54v3.07h-.54Z"/>
    <path d="M30.81,58.02c-.38,0-.68-.12-.88-.35s-.31-.56-.31-.99v-.51c0-.42.1-.75.31-.97s.5-.34.88-.34c.22,0,.41.04.59.13.17.08.31.21.42.36l-.39.39c-.08-.1-.17-.17-.27-.23s-.22-.08-.33-.08c-.21,0-.37.07-.49.2-.12.13-.17.31-.17.55v.51c0,.24.06.43.17.56.12.13.28.2.49.2.12,0,.23-.03.33-.09s.2-.14.27-.24l.39.42c-.1.15-.24.27-.42.36s-.37.13-.59.13Z"/>
    <path d="M33.46,57.98l1.43-4.3h.46l1.43,4.3h-.59l-1.08-3.47-1.08,3.47h-.59ZM34.11,57.03v-.57h2.04v.57h-2.04Z"/>
    <path d="M37.8,54.91v1.87c0,.21.05.38.15.5.1.12.24.18.42.18s.32-.05.41-.16.15-.25.15-.45l.04.64c-.05.14-.14.26-.26.37-.13.11-.29.16-.49.16-.31,0-.54-.11-.71-.33-.17-.22-.25-.53-.25-.92v-1.87h.54ZM38.93,57.98v-3.07h.54v3.07h-.54Z"/>
    <path d="M40.03,55.45v-.54h1.25v.54h-1.25ZM40.96,57.99c-.23,0-.39-.07-.49-.21s-.15-.34-.15-.6v-3.17h.54v3.17c0,.07.01.13.04.17s.07.06.12.06h.26v.57h-.32Z"/>
    <path d="M41.97,57.98v-4.3h.54v4.3h-.54ZM43.65,57.98v-1.86c0-.22-.05-.38-.15-.5s-.24-.18-.43-.18-.32.05-.41.15-.15.25-.15.43l-.06-.59c.09-.18.2-.32.34-.42.14-.1.29-.15.46-.15.3,0,.53.11.7.33.16.22.25.53.25.92v1.86h-.54Z"/>
    <path d="M46.03,58.02c-.36,0-.64-.12-.84-.35s-.3-.56-.3-.99v-.5c0-.42.1-.75.3-.98s.48-.35.84-.35.64.12.84.35c.2.23.3.56.3.98v.51c0,.42-.1.75-.3.98-.2.23-.48.35-.84.35ZM46.03,57.45c.19,0,.34-.07.44-.2.1-.13.16-.32.16-.56v-.51c0-.24-.05-.42-.16-.55-.1-.13-.25-.2-.44-.2s-.34.07-.44.2-.16.32-.16.55v.51c0,.24.05.42.16.56s.25.2.44.2Z"/>
    <path d="M47.89,57.98v-3.07h.54v3.07h-.54ZM49.42,55.64c-.05-.07-.11-.11-.18-.15s-.16-.05-.25-.05c-.17,0-.31.05-.4.16-.09.11-.14.25-.14.44l-.06-.59c.08-.18.19-.32.33-.43s.29-.15.45-.15c.13,0,.24.02.34.06.1.04.19.1.27.18l-.36.53Z"/>
    <path d="M50.17,54.28v-.6h.54v.6h-.54ZM50.17,57.98v-3.07h.54v3.07h-.54Z"/>
    <path d="M51.28,55.45v-.54h1.25v.54h-1.25ZM52.21,57.99c-.23,0-.39-.07-.49-.21s-.15-.34-.15-.6v-3.17h.54v3.17c0,.07.01.13.04.17s.07.06.12.06h.26v.57h-.32Z"/>
    <path d="M54.03,58.23l-1.11-3.32h.56l.85,2.67-.3.65ZM54.82,54.91h.55l-1.18,3.79c-.07.21-.16.36-.29.44-.12.08-.3.12-.51.12h-.11v-.58h.11c.1,0,.18-.02.24-.07s.11-.12.16-.23l1.03-3.47Z"/>
    <path d="M57,55.42v-.51h1.38v.51h-1.38ZM57.29,57.98v-3.49c0-.27.06-.47.17-.61.11-.14.29-.2.52-.2h.4v.57h-.39c-.05,0-.09.02-.12.07s-.04.1-.04.16v3.49h-.54Z"/>
    <path d="M59.87,58.02c-.36,0-.64-.12-.84-.35s-.3-.56-.3-.99v-.5c0-.42.1-.75.3-.98s.48-.35.84-.35.64.12.84.35c.2.23.3.56.3.98v.51c0,.42-.1.75-.3.98-.2.23-.48.35-.84.35ZM59.87,57.45c.19,0,.34-.07.44-.2.1-.13.16-.32.16-.56v-.51c0-.24-.05-.42-.16-.55-.1-.13-.25-.2-.44-.2s-.34.07-.44.2-.16.32-.16.55v.51c0,.24.05.42.16.56s.25.2.44.2Z"/>
    <path d="M61.74,57.98v-3.07h.54v3.07h-.54ZM63.26,55.64c-.05-.07-.11-.11-.18-.15s-.16-.05-.25-.05c-.17,0-.31.05-.4.16-.09.11-.14.25-.14.44l-.06-.59c.08-.18.19-.32.33-.43s.29-.15.45-.15c.13,0,.24.02.34.06.1.04.19.1.27.18l-.36.53Z"/>
    <path d="M65.11,57.98l1.43-4.3h.46l1.43,4.3h-.59l-1.08-3.47-1.08,3.47h-.59ZM65.77,57.03v-.57h2.04v.57h-2.04Z"/>
    <path d="M68.91,59.23v-4.32h.54v4.32h-.54ZM70.15,58.02c-.17,0-.32-.05-.45-.14s-.22-.22-.28-.39l.04-.64c0,.13.02.24.06.34s.1.16.19.21c.08.05.18.07.29.07.18,0,.32-.06.42-.18.1-.12.15-.29.15-.51v-.67c0-.22-.05-.4-.15-.52-.1-.12-.24-.19-.42-.19-.12,0-.21.02-.29.07-.08.05-.14.12-.19.21s-.06.2-.06.33l-.06-.59c.08-.18.19-.32.33-.42s.29-.15.45-.15c.3,0,.53.11.69.33s.24.53.24.92v.67c0,.39-.08.7-.25.91s-.4.33-.71.33Z"/>
    <path d="M71.83,59.23v-4.32h.54v4.32h-.54ZM73.07,58.02c-.17,0-.32-.05-.45-.14s-.22-.22-.28-.39l.04-.64c0,.13.02.24.06.34s.1.16.19.21c.08.05.18.07.29.07.18,0,.32-.06.42-.18.1-.12.15-.29.15-.51v-.67c0-.22-.05-.4-.15-.52-.1-.12-.24-.19-.42-.19-.12,0-.21.02-.29.07-.08.05-.14.12-.19.21s-.06.2-.06.33l-.06-.59c.08-.18.19-.32.33-.42s.29-.15.45-.15c.3,0,.53.11.69.33s.24.53.24.92v.67c0,.39-.08.7-.25.91s-.4.33-.71.33Z"/>
    <path d="M75.29,53.68v3.51c0,.07.01.13.04.17.03.04.07.06.12.06h.26v.57h-.32c-.2,0-.36-.07-.48-.21s-.17-.34-.17-.6v-3.5h.54Z"/>
    <path d="M76.27,54.28v-.6h.54v.6h-.54ZM76.27,57.98v-3.07h.54v3.07h-.54Z"/>
    <path d="M78.73,58.02c-.39,0-.68-.12-.9-.36-.21-.24-.32-.58-.32-1.02v-.35c0-.46.1-.81.31-1.06.2-.25.49-.38.86-.38.35,0,.62.14.81.43.19.28.29.68.29,1.2v.2h-1.87v-.49h1.35c-.02-.25-.07-.44-.18-.58s-.24-.21-.4-.21c-.2,0-.36.08-.48.22s-.17.36-.17.64v.39c0,.25.06.45.18.59s.29.2.51.2c.11,0,.22-.03.33-.07.11-.05.21-.12.29-.21l.36.4c-.14.15-.29.26-.46.34s-.34.12-.51.12Z"/>
    <path d="M81.35,58.03c-.31,0-.54-.11-.71-.33s-.25-.53-.25-.92v-.68c0-.4.08-.71.24-.92s.39-.33.69-.33c.16,0,.31.05.45.14s.25.23.33.4l-.06.63c0-.13-.02-.24-.06-.33-.04-.09-.1-.16-.18-.21-.08-.05-.18-.07-.3-.07-.18,0-.32.06-.42.19-.1.12-.15.3-.15.52v.67c0,.22.05.39.15.52.1.12.24.18.42.18.12,0,.21-.03.3-.08.08-.05.14-.12.18-.22.04-.09.06-.21.06-.34l.04.65c-.05.14-.14.26-.26.37s-.28.16-.48.16ZM82.04,57.98v-4.3h.54v4.3h-.54Z"/>
    <path d="M84.83,57.98v-4.3h.54v4.3h-.54ZM85.09,54.25v-.57h2.23v.57h-2.23ZM85.09,56.13v-.57h1.93v.57h-1.93ZM85.09,57.98v-.57h2.23v.57h-2.23Z"/>
    <path d="M88.86,58.03c-.31,0-.54-.11-.71-.33s-.25-.53-.25-.92v-.68c0-.4.08-.71.24-.92s.39-.33.69-.33c.16,0,.31.05.45.14s.25.23.33.4l-.06.63c0-.13-.02-.24-.06-.33-.04-.09-.1-.16-.18-.21-.08-.05-.18-.07-.3-.07-.18,0-.32.06-.42.19-.1.12-.15.3-.15.52v.67c0,.22.05.39.15.52.1.12.24.18.42.18.12,0,.21-.03.3-.08.08-.05.14-.12.18-.22.04-.09.06-.21.06-.34l.04.65c-.05.14-.14.26-.26.37s-.28.16-.48.16ZM89.56,57.98v-4.3h.54v4.3h-.54Z"/>
    <path d="M91.42,54.91v1.87c0,.21.05.38.15.5.1.12.24.18.42.18s.32-.05.41-.16.15-.25.15-.45l.04.64c-.05.14-.14.26-.26.37-.13.11-.29.16-.49.16-.31,0-.54-.11-.71-.33-.17-.22-.25-.53-.25-.92v-1.87h.54ZM92.55,57.98v-3.07h.54v3.07h-.54Z"/>
    <path d="M94.98,58.02c-.38,0-.68-.12-.88-.35s-.31-.56-.31-.99v-.51c0-.42.1-.75.31-.97s.5-.34.88-.34c.22,0,.41.04.59.13.17.08.31.21.42.36l-.39.39c-.08-.1-.17-.17-.27-.23s-.22-.08-.33-.08c-.21,0-.37.07-.49.2-.12.13-.17.31-.17.55v.51c0,.24.06.43.17.56.12.13.28.2.49.2.12,0,.23-.03.33-.09s.2-.14.27-.24l.39.42c-.1.15-.24.27-.42.36s-.37.13-.59.13Z"/>
    <path d="M97.41,58.02c-.34,0-.59-.08-.76-.23-.17-.16-.25-.39-.25-.72s.08-.53.23-.68c.16-.15.39-.23.7-.23h.79l.04.49h-.82c-.14,0-.25.04-.32.11s-.11.18-.11.32c0,.16.05.27.14.35.09.08.24.11.42.11.21,0,.36-.03.46-.07.1-.05.15-.13.15-.23l.06.43c-.05.08-.11.15-.18.2-.07.05-.15.09-.24.12s-.2.04-.31.04ZM98.09,57.98v-1.95c0-.2-.05-.36-.14-.47s-.23-.17-.41-.17c-.11,0-.22.02-.32.05s-.2.09-.28.16l-.4-.3c.11-.14.24-.25.41-.33s.36-.12.57-.12c.35,0,.62.1.81.3.19.2.29.48.29.84v1.97h-.52Z"/>
    <path d="M99.17,55.45v-.54h1.25v.54h-1.25ZM100.1,57.99c-.23,0-.39-.07-.49-.21s-.15-.34-.15-.6v-3.17h.54v3.17c0,.07.01.13.04.17s.07.06.12.06h.26v.57h-.32Z"/>
    <path d="M101.11,54.28v-.6h.54v.6h-.54ZM101.11,57.98v-3.07h.54v3.07h-.54Z"/>
    <path d="M103.49,58.02c-.36,0-.64-.12-.84-.35s-.3-.56-.3-.99v-.5c0-.42.1-.75.3-.98s.48-.35.84-.35.64.12.84.35c.2.23.3.56.3.98v.51c0,.42-.1.75-.3.98-.2.23-.48.35-.84.35ZM103.49,57.45c.19,0,.34-.07.44-.2.1-.13.16-.32.16-.56v-.51c0-.24-.05-.42-.16-.55-.1-.13-.25-.2-.44-.2s-.34.07-.44.2-.16.32-.16.55v.51c0,.24.05.42.16.56s.25.2.44.2Z"/>
    <path d="M105.35,57.98v-3.07h.54v3.07h-.54ZM107.03,57.98v-1.86c0-.22-.05-.38-.15-.5s-.24-.18-.43-.18-.32.05-.41.16-.15.25-.15.44l-.06-.59c.09-.18.2-.33.34-.43.14-.1.29-.15.46-.15.3,0,.53.11.7.33.16.22.25.53.25.92v1.86h-.54Z"/>
    <path d="M110.65,58.02c-.34,0-.59-.08-.76-.23-.17-.16-.25-.39-.25-.72s.08-.53.23-.68c.16-.15.39-.23.7-.23h.79l.04.49h-.82c-.14,0-.25.04-.32.11s-.11.18-.11.32c0,.16.05.27.14.35s.24.11.42.11c.21,0,.36-.03.46-.07s.16-.13.16-.23l.06.43c-.05.08-.11.15-.18.2s-.15.09-.24.12-.2.04-.31.04ZM111.33,57.98v-1.95c0-.2-.05-.36-.15-.47-.09-.11-.23-.17-.41-.17-.11,0-.22.02-.32.05s-.2.09-.29.16l-.4-.3c.11-.14.24-.25.41-.33s.36-.12.57-.12c.35,0,.62.1.8.3s.29.48.29.84v1.97h-.52Z"/>
    <path d="M112.62,57.98v-3.07h.54v3.07h-.54ZM114.3,57.98v-1.86c0-.22-.05-.38-.15-.5s-.24-.18-.43-.18-.32.05-.41.16c-.1.11-.14.25-.14.44l-.06-.59c.08-.18.2-.33.33-.43s.29-.15.46-.15c.3,0,.53.11.7.33s.25.53.25.92v1.86h-.54Z"/>
    <path d="M116.49,58.03c-.31,0-.54-.11-.71-.33-.17-.22-.25-.53-.25-.92v-.68c0-.4.08-.71.24-.92s.39-.33.69-.33c.16,0,.31.05.45.14s.25.23.33.4l-.06.63c0-.13-.02-.24-.06-.33s-.11-.16-.19-.21c-.08-.05-.18-.07-.29-.07-.18,0-.32.06-.42.19-.1.12-.15.3-.15.52v.67c0,.22.05.39.15.52.1.12.24.18.42.18.12,0,.21-.03.29-.08.08-.05.14-.12.19-.22s.06-.21.06-.34l.04.65c-.05.14-.14.26-.26.37s-.28.16-.48.16ZM117.19,57.98v-4.3h.54v4.3h-.54Z"/>
    <path d="M119.44,54.25v-.57h2.74v.57h-2.74ZM120.53,57.98v-3.95h.54v3.95h-.54Z"/>
    <path d="M122.28,57.98v-3.07h.54v3.07h-.54ZM123.81,55.64c-.05-.07-.11-.11-.18-.15s-.16-.05-.25-.05c-.17,0-.31.05-.4.16s-.14.25-.14.44l-.06-.59c.08-.18.19-.32.33-.43s.29-.15.45-.15c.13,0,.24.02.34.06s.19.1.27.18l-.36.53Z"/>
    <path d="M125.45,58.02c-.34,0-.59-.08-.76-.23s-.26-.39-.26-.72.08-.53.23-.68.39-.23.7-.23h.79l.04.49h-.82c-.14,0-.25.04-.32.11s-.11.18-.11.32c0,.16.05.27.14.35.09.08.24.11.42.11.21,0,.36-.03.46-.07s.16-.13.16-.23l.06.43c-.05.08-.11.15-.18.2s-.15.09-.24.12-.2.04-.31.04ZM126.12,57.98v-1.95c0-.2-.05-.36-.15-.47-.1-.11-.23-.17-.41-.17-.11,0-.22.02-.32.05-.11.04-.2.09-.28.16l-.4-.3c.11-.14.24-.25.42-.33s.36-.12.57-.12c.35,0,.62.1.81.3.19.2.29.48.29.84v1.97h-.52Z"/>
    <path d="M127.42,54.28v-.6h.54v.6h-.54ZM127.42,57.98v-3.07h.54v3.07h-.54Z"/>
    <path d="M128.73,57.98v-3.07h.54v3.07h-.54ZM130.41,57.98v-1.86c0-.22-.05-.38-.15-.5s-.24-.18-.43-.18-.32.05-.41.16c-.1.11-.14.25-.14.44l-.06-.59c.08-.18.2-.33.33-.43s.29-.15.46-.15c.3,0,.53.11.7.33s.25.53.25.92v1.86h-.54Z"/>
    <path d="M131.73,54.28v-.6h.54v.6h-.54ZM131.73,57.98v-3.07h.54v3.07h-.54Z"/>
    <path d="M133.05,57.98v-3.07h.54v3.07h-.54ZM134.73,57.98v-1.86c0-.22-.05-.38-.15-.5s-.24-.18-.43-.18-.32.05-.41.16c-.1.11-.14.25-.14.44l-.06-.59c.08-.18.2-.33.33-.43s.29-.15.46-.15c.3,0,.53.11.7.33s.25.53.25.92v1.86h-.54Z"/>
    <path d="M136.92,58.03c-.31,0-.54-.11-.71-.33-.17-.22-.25-.53-.25-.92v-.68c0-.4.08-.71.24-.92s.39-.33.69-.33c.16,0,.31.05.45.14s.25.23.33.4l-.06.63c0-.13-.02-.24-.06-.33s-.11-.16-.19-.21c-.08-.05-.18-.07-.29-.07-.18,0-.32.06-.42.19-.1.12-.15.3-.15.52v.67c0,.22.05.39.15.52.1.12.24.18.42.18.12,0,.21-.03.29-.08.08-.05.14-.12.19-.22s.06-.21.06-.34l.04.65c-.05.14-.14.26-.26.37s-.28.16-.48.16ZM136.97,59.23c-.21,0-.39-.04-.56-.13-.16-.09-.29-.21-.38-.36l.37-.37c.07.11.16.19.25.25s.2.09.31.09c.21,0,.37-.06.48-.19.11-.13.17-.31.17-.54v-3.07h.54v2.98c0,.43-.1.76-.31.99s-.5.35-.88.35Z"/>
  </g>
</svg>