<svg xmlns="http://www.w3.org/2000/svg" viewBox="446 28 170 180" width="200" height="200">
  <defs>
    <style>
      .cls-1 {
        fill: #231f20;
      }

      .cls-2 {
        fill: #0751a0;
      }

      .cls-3 {
        fill: #cba62c;
      }
    </style>
  </defs>
  <path class="cls-2" d="M527.79,202.91c-2.33-14.71-9.53-28.18-20.26-37.92-10.87-9.87-24.73-15.3-39.04-15.3h-5.31v2.33h5.31c13.73,0,27.04,5.22,37.48,14.7,10.34,9.39,17.27,22.37,19.52,36.56l2.3-.37h0Z"/>
  <path class="cls-2" d="M536.66,203.27c2.25-14.19,9.19-27.17,19.52-36.56,10.44-9.48,23.75-14.7,37.48-14.7h5.31v-2.33h-5.31c-14.31,0-28.18,5.43-39.04,15.3-10.73,9.74-17.92,23.21-20.26,37.92l2.3.37h0Z"/>
  <path class="cls-2" d="M530.78,202.9v-53.57h24.92l3.96,7.45s-23.06,12.34-28.88,46.12Z"/>
  <path class="cls-1" d="M526.45,157.72c.73,0,1.32-.59,1.32-1.32v-1.16c0-.73-.59-1.32-1.32-1.32h-3.65c-.73,0-1.32.6-1.32,1.32v1.16c0,.73.59,1.32,1.32,1.32h3.65Z"/>
  <path class="cls-2" d="M545.07,118.04h-14.29V35.74h.93s4.97,67.7,13.36,82.3Z"/>
  <path class="cls-2" d="M523.75,118.04h3.11V35.89h-1.55l-1.55,82.15Z"/>
  <path class="cls-3" d="M521.71,107.68c-12.07,3.45-21.5,13.15-24.61,25.31l2.26.58c2.9-11.36,11.71-20.43,22.99-23.65l-.64-2.24Z"/>
  <path class="cls-3" d="M544.71,111.3c9.44,4.03,16.59,12.36,19.13,22.28l2.26-.58c-2.71-10.62-10.36-19.54-20.47-23.85l-.91,2.14h0Z"/>
  <path class="cls-3" d="M494.69,132.54c3.41-13.18,13.75-23.58,26.89-27.08l.12-1.09v-4.4l-1.11-3.29c-2.24.53-4.42,1.22-6.52,2.06l1.1,3.28c-.94.38-1.87.79-2.78,1.24l-1.65-3.03c-2.05,1.01-4.02,2.17-5.89,3.47l1.66,3.05c-.86.61-1.7,1.25-2.52,1.92l-2.15-2.7c-1.77,1.45-3.44,3.03-4.98,4.72l2.18,2.74c-.72.81-1.4,1.64-2.06,2.5l-2.59-2.29c-1.4,1.82-2.67,3.74-3.8,5.76l2.65,2.34c-.51.94-.97,1.91-1.41,2.89l-2.97-1.82c-.95,2.1-1.76,4.29-2.4,6.54l3.07,1.88c-.13.51-.26,1.03-.37,1.55h4.87l.63-.24h0Z"/>
  <path class="cls-3" d="M576.26,129.35c-.64-2.25-1.44-4.44-2.4-6.54l-2.97,1.82c-.44-.98-.91-1.95-1.41-2.89l2.65-2.34c-1.12-2.02-2.39-3.94-3.8-5.76l-2.6,2.29c-.66-.86-1.34-1.69-2.06-2.5l2.18-2.74c-1.54-1.69-3.2-3.27-4.98-4.72l-2.15,2.7c-.81-.67-1.66-1.31-2.52-1.92l1.66-3.05c-1.87-1.29-3.84-2.45-5.89-3.47l-1.65,3.03c-.91-.44-1.84-.86-2.78-1.24l1.1-3.28c-2.1-.84-4.28-1.53-6.52-2.06l-.39,1.15,1.66,8.31c12.06,4.04,21.42,13.98,24.64,26.39l.63.24h4.87c-.11-.52-.24-1.04-.37-1.55l3.07-1.88h0Z"/>
  <path class="cls-2" d="M496.78,149.33l20.03,11.41v-11.41h-20.03ZM514.73,157.32l-10.02-5.71h10.02v5.71Z"/>
  <path class="cls-3" d="M522.43,149.33h4.43v6.21h-4.43v-6.21Z"/>
  <path class="cls-1" d="M555.44,121.78h-1.61v10.77h1.61v-10.77Z"/>
  <path class="cls-1" d="M531.08,121.78h-1.61v10.77h1.61v-10.77Z"/>
  <path class="cls-1" d="M587.76,134.84v8.21h-2.96v-8.21h-1.61v8.21h-1.21v-4.67h-1.61v4.67h-4.1c.11-.71.57-2.73,2.42-3.92v-.91h-5.71v.72s2.05,2.14,2.17,4.1h-4.33v-8.21h-1.61v8.21h-1.22v-4.26h-1.61v4.26h-1.75v-5.01h-.63c-1.94-.04-5.66.98-6,5.01h-.91v2.56h32.32v-10.77h-1.62ZM563.31,139.35v3.7h-4.04c.31-2.98,2.87-3.58,4.04-3.7Z"/>
  <path class="cls-1" d="M556.12,134.84h-1.61v10.77h1.61v-10.77Z"/>
  <path class="cls-1" d="M551.41,143.05h-1.08v-4.26h-1.61v4.26h-1.21v-4.26h-.36l.02-.02-7.12.05c-.48.19-.76.38-1.02.6v-4.58h-1.61v8.21h-1.35v-4.26h-1.61v4.26h-.94v-4.26h-1.61v4.26h-1.83c.72-.37,1.21-1.09,1.21-1.92,0-1.2-1.02-2.18-2.29-2.18s-2.28.97-2.28,2.18c0,.83.49,1.56,1.21,1.92h-1.54l-2.01-4.19-4.4-.05.14,1.23,1.72,3.01h-3.18v-4.28h-1.43v4.81h0v2.03h4.79s.55,0,.55,0h.18l2.17-.04-3.27-5.71,1.81.09,2.91,5.66h26.66v-10.77h-1.61v8.21h0ZM528.98,140.13c.5,0,.91.4.91.9s-.4.9-.91.9-.91-.4-.91-.9.4-.9.91-.9ZM539.02,143.05v-1.11c.3-1.72,1.47-1.9,1.47-1.9h5.39v3.01h-6.87Z"/>
  <path class="cls-1" d="M509.27,134.84h-1.61v10.77h1.61v-10.77Z"/>
  <path class="cls-1" d="M492.44,143.05h-2.43v2.56h4.04v-6.82h-1.61v4.26Z"/>
  <path class="cls-1" d="M504.96,143.05h-1.22v-4.26h-1.61v4.26h-1.1l.02-.02s-.23-2.04-2.04-3.67c0,0-.41-.36-.86-.54h-3.31v.41l-.05,1.09h2.09s2.18.18,2.18,2.67v.06h-4.07v2.56h11.58v-10.77h-1.61v8.21Z"/>
  <path class="cls-1" d="M519.23,132.56h9.16v-10.77h-1.61v8.21h-3.35c.15-.83.68-2.64,2.39-3.74v-.91h-5.71v.72s1.93,2.02,2.15,3.92h-3.02v-8.21h-1.61v10.77h1.61,0Z"/>
  <path class="cls-1" d="M488.67,145.61h.13v-6.82h-1.61v4.26h-2.83v-4.26h-1.62v4.26h-7.27v-4.26h-1.61v6.82h14.81Z"/>
  <path class="cls-1" d="M511.26,130h-.79v-4.74h-.63c-1.96-.04-5.74,1-6.01,5.14-.09,1.35-.12,1.84.32,1.99v.17h12.32v-.78h.06v-6.52h-.51c-1.51-.04-4.38.94-4.76,4.74h0ZM515.5,126.56v3.44h-3.2c.34-2.75,2.3-3.32,3.2-3.44ZM509.18,126.56v3.44h-4.01c.43-2.75,2.88-3.32,4.01-3.44Z"/>
  <path class="cls-1" d="M532.15,132.42v.14h20.47v-10.77h-1.61v8.21h-1.1c.4-1.31-.25-3.1-.25-3.1-.72-1.27-2.63-2.09-3.99-2.18-1.36-.09-1.27,1.27-.81,1.27s.27.63.27.63c-1,1-.63,2.83-.5,3.38h-1.03v-4.67h-1.61v4.67h-.94v-4.67h-1.61v4.67h-1.08v-4.74h-.63c-1.97-.04-5.74,1-6.01,5.14-.1,1.48-.12,1.92.45,2.02h0ZM548.16,127.26c.45,0,.82.51.82,1.13s-.37,1.13-.82,1.13-.81-.51-.81-1.13.37-1.13.81-1.13ZM537.05,126.56v3.44h-4.01c.43-2.75,2.88-3.32,4.01-3.44Z"/>
  <path class="cls-1" d="M569.58,146.56h-1.89v1.89h1.89v-1.89Z"/>
  <path class="cls-1" d="M566.9,146.56h-1.89v1.89h1.89v-1.89Z"/>
  <path class="cls-1" d="M534.03,146.56h-1.89v1.89h1.89v-1.89Z"/>
  <path class="cls-1" d="M538.08,146.56h-1.89v1.89h1.89v-1.89Z"/>
  <path class="cls-1" d="M531.34,146.56h-1.89v1.89h1.89v-1.89Z"/>
  <path class="cls-1" d="M488.93,146.56h-1.89v1.89h1.89v-1.89Z"/>
  <path class="cls-1" d="M486.24,146.56h-1.89v1.89h1.89v-1.89Z"/>
  <path class="cls-1" d="M510.21,122.32h-1.89v1.89h1.89v-1.89Z"/>
  <path class="cls-1" d="M507.52,122.32h-1.89v1.89h1.89v-1.89Z"/>
  <path class="cls-1" d="M537.67,122.32h-1.88v1.89h1.88v-1.89Z"/>
  <path class="cls-1" d="M534.99,122.32h-1.89v1.89h1.89v-1.89Z"/>
  <path class="cls-1" d="M531.21,135.92h-1.89v1.89h1.89v-1.89Z"/>
  <path class="cls-1" d="M528.52,135.92h-1.89v1.89h1.89v-1.89Z"/>
  <path class="cls-1" d="M550.32,135.92h-1.89v1.89h1.89v-1.89Z"/>
  <path class="cls-1" d="M547.64,135.92h-1.88v1.89h1.88v-1.89Z"/>
  <path class="cls-1" d="M504.14,135.92h-1.89v1.89h1.89v-1.89Z"/>
  <path class="cls-1" d="M501.45,135.92h-1.89v1.89h1.89v-1.89Z"/>
  <path class="cls-1" d="M581.43,135.92h-1.89v1.89h1.89v-1.89Z"/>
  <path class="cls-1" d="M578.74,135.92h-1.88v1.89h1.88v-1.89Z"/>
  <path class="cls-1" d="M544,133.23h-1.89v1.89h1.89v-1.89Z"/>
  <path class="cls-1" d="M541.31,133.23h-1.89v1.89h1.89v-1.89Z"/>
  <path class="cls-1" d="M480.58,146.56h-1.89v1.89h1.89v-1.89Z"/>
  <path class="cls-1" d="M541.95,123.08h-1.81c.36-1.54,1.9-1.3,1.9-1.3v-1.15c-2.99-.09-2.99,2.72-2.99,2.72h-.91v.82h3.81v-1.09h0Z"/>
  <path class="cls-1" d="M513.34,138.95c-1.26,0-2.28.97-2.28,2.18s1.02,2.18,2.28,2.18c.29,0,.56-.05.81-.14v1.1h-2.4v-.32h-.97v1.68h4.82v-4.19h0c.02-.09.03-.19.03-.29,0-1.2-1.02-2.18-2.29-2.18h0ZM513.34,141.93c-.5,0-.91-.4-.91-.9s.4-.9.91-.9.91.4.91.9-.4.9-.91.9Z"/>
  <path class="cls-3" d="M523.99,176.16v-9.3c-.69-.26-1.18-.92-1.18-1.7,0-1,.81-1.81,1.81-1.81s1.81.81,1.81,1.81c0,.77-.48,1.43-1.17,1.69v9.25l4.63-9.07c-4.27-6.91-3.03-10.64-3.03-10.64h-4.5s1.24,3.73-3.03,10.64l4.65,9.12h0Z"/>
  
</svg>